<svg preserveAspectRatio="none" width="100%" height="100%" overflow="visible" style="display: block;" viewBox="0 0 15 15" fill="none" xmlns="http://www.w3.org/2000/svg">
<path id="Icon" d="M0.750001 5.25H14.25M4.35 0.750001H10.65C11.9101 0.750001 12.5402 0.750001 13.0215 0.995236C13.4448 1.21095 13.789 1.55516 14.0048 1.97852C14.25 2.45982 14.25 3.08988 14.25 4.35V10.65C14.25 11.9101 14.25 12.5402 14.0048 13.0215C13.789 13.4448 13.4448 13.789 13.0215 14.0048C12.5402 14.25 11.9101 14.25 10.65 14.25H4.35C3.08988 14.25 2.45982 14.25 1.97852 14.0048C1.55516 13.789 1.21095 13.4448 0.995236 13.0215C0.750001 12.5402 0.750001 11.9101 0.750001 10.65V4.35C0.750001 3.08988 0.750001 2.45982 0.995236 1.97852C1.21095 1.55516 1.55516 1.21095 1.97852 0.995236C2.45982 0.750001 3.08988 0.750001 4.35 0.750001Z" stroke="var(--stroke-0, #BDBDBD)" stroke-width="1.5" stroke-linecap="round" stroke-linejoin="round"/>
</svg>
