<svg preserveAspectRatio="none" width="100%" height="100%" overflow="visible" style="display: block;" viewBox="0 0 1920 1440" fill="none" xmlns="http://www.w3.org/2000/svg">
<g id="Horizontal" clip-path="url(#clip0_181_6401)">
<line id="Line" opacity="0" y1="-0.5" x2="1920" y2="-0.5" stroke="var(--stroke-0, #56CCF2)"/>
<line id="Line_2" y1="79.5" x2="1920" y2="79.5" stroke="var(--stroke-0, #56CCF2)"/>
<line id="Line_3" y1="159.5" x2="1920" y2="159.5" stroke="var(--stroke-0, #56CCF2)"/>
<line id="Line_4" y1="239.5" x2="1920" y2="239.5" stroke="var(--stroke-0, #56CCF2)"/>
<line id="Line_5" y1="319.5" x2="1920" y2="319.5" stroke="var(--stroke-0, #56CCF2)"/>
<line id="Line_6" y1="399.5" x2="1920" y2="399.5" stroke="var(--stroke-0, #56CCF2)"/>
<line id="Line_7" y1="479.5" x2="1920" y2="479.5" stroke="var(--stroke-0, #56CCF2)"/>
<line id="Line_8" y1="559.5" x2="1920" y2="559.5" stroke="var(--stroke-0, #56CCF2)"/>
<line id="Line_9" y1="639.5" x2="1920" y2="639.5" stroke="var(--stroke-0, #56CCF2)"/>
<line id="Line_10" y1="719.5" x2="1920" y2="719.5" stroke="var(--stroke-0, #56CCF2)"/>
<line id="Line_11" y1="799.5" x2="1920" y2="799.5" stroke="var(--stroke-0, #56CCF2)"/>
<line id="Line_12" y1="879.5" x2="1920" y2="879.5" stroke="var(--stroke-0, #56CCF2)"/>
<line id="Line_13" y1="959.5" x2="1920" y2="959.5" stroke="var(--stroke-0, #56CCF2)"/>
<line id="Line_14" y1="1039.5" x2="1920" y2="1039.5" stroke="var(--stroke-0, #56CCF2)"/>
<line id="Line_15" y1="1119.5" x2="1920" y2="1119.5" stroke="var(--stroke-0, #56CCF2)"/>
<line id="Line_16" y1="1199.5" x2="1920" y2="1199.5" stroke="var(--stroke-0, #56CCF2)"/>
<line id="Line_17" y1="1279.5" x2="1920" y2="1279.5" stroke="var(--stroke-0, #E9EAEB)"/>
<line id="Line_18" y1="1359.5" x2="1920" y2="1359.5" stroke="var(--stroke-0, #E9EAEB)"/>
<line id="Line_19" opacity="0" y1="1439.5" x2="1920" y2="1439.5" stroke="var(--stroke-0, #E9EAEB)"/>
</g>
<defs>
<clipPath id="clip0_181_6401">
<rect width="1920" height="1440" fill="white"/>
</clipPath>
</defs>
</svg>
